<?xml version="1.0" standalone="no"?>
<!DOCTYPE svg PUBLIC "-//W3C//DTD SVG 20010904//EN"
 "http://www.w3.org/TR/2001/REC-SVG-20010904/DTD/svg10.dtd">
<svg version="1.0" xmlns="http://www.w3.org/2000/svg"
 width="405.000000pt" height="492.000000pt" viewBox="0 0 405.000000 492.000000"
 preserveAspectRatio="xMidYMid meet">

<g transform="translate(0.000000,492.000000) scale(0.100000,-0.100000)"
fill="#000000" stroke="none">
<path d="M2009 3538 l-65 -114 313 -535 c173 -293 373 -633 446 -754 l132
-220 129 -3 c122 -2 128 -2 124 16 -6 23 -947 1627 -999 1702 -15 22 -16 21
-80 -92z"/>
<path d="M1493 3363 c-72 -120 -235 -396 -363 -613 -128 -217 -298 -504 -377
-637 -79 -133 -146 -249 -149 -257 -5 -14 10 -16 127 -16 l134 1 292 497 c160
273 329 561 375 640 80 138 83 142 98 121 8 -13 146 -246 306 -518 l291 -496
-239 -5 -240 -5 -64 -110 c-35 -60 -64 -113 -64 -117 0 -5 170 -8 379 -8 l378
0 124 -215 124 -214 265 -1 c146 -1 320 -3 388 -6 67 -3 122 -2 122 2 0 4 -30
58 -66 120 l-67 114 -251 0 -252 0 -18 33 c-33 57 -148 253 -368 627 -118 201
-331 563 -473 805 -142 242 -263 448 -270 458 -11 16 -28 -8 -142 -200z"/>
<path d="M1501 2522 c-62 -108 -203 -350 -314 -538 l-200 -341 -119 -6 c-66
-3 -179 -3 -251 0 -154 7 -133 19 -219 -126 -56 -93 -57 -96 -35 -103 12 -3
185 -6 384 -7 l362 -1 19 28 c22 32 317 529 424 717 l75 130 117 3 c104 2 117
5 112 19 -9 23 -212 385 -228 405 -11 15 -27 -7 -127 -180z"/>
</g>
</svg>
